# xmcd
#
# Track frame offsets:
#	183
#	12695
#	23033
#	36695
#	50533
#	61220
#	74333
#	85995
#	94745
#	106595
#	121745
#	135233
#	147470
#	154983
#	164858
#	177470
#	188783
#	199670
#	210620
#	221195
#	235033
#	246770
#	259970
#	272183
#	283533
#
# Disc length: 3920 seconds
#
# Revision: 5
# Processed by: cddbd v1.5.2PL0 Copyright (c) Steve Scherf et al.
# Submitted via: EasyCDDAExtractor 16.0.6.1
#
DISCID=7f0f4e19
DTITLE=Various Artist - C-094 Country Round-Up CD 1
DYEAR=1900
DGENRE=Country
TTITLE0=Kenny Rogers - Reuben James
TTITLE1=Frankie Laine - I Believe
TTITLE2=Willie Nelson - You`ll Always Have Someone
TTITLE3=Freddy Fender - Wasted Days and Wasted Nights
TTITLE4=Waylon Jennings - Burning Memories
TTITLE5=Donna Fargo - Daddy
TTITLE6=George Jones - Your Tender Years
TTITLE7=Patsy Cline - Come On In
TTITLE8=Roy Drusky - Take These Chains from My Heart
TTITLE9=Barbara Fairchild - Slippin' Away
TTITLE10=Kenny Rogers - Shine On Ruby Mountain
TTITLE11=Stonewall Jackson - Ol' Blue
TTITLE12=George Jones - Ragged but Right
TTITLE13=Donna Fargo - Sticks and Stones
TTITLE14=Frankie Laine - High Noon
TTITLE15=Roy Drusky - The Last Letter
TTITLE16=Freddy Fender - Wild Side of Life
TTITLE17=Stonewall Jackson - Should I Go Home
TTITLE18=Waylon Jennings - Dream Baby
TTITLE19=Barbara Fairchild - Crazy Love
TTITLE20=Patsy Cline - Cry Not For Me
TTITLE21=Kenny Rogers - Ruby Don't Take your Love to Town
TTITLE22=Roy Drusky - Luckinback Texas
TTITLE23=Donna Fargo - Wishful Thinking
TTITLE24=Waylon Jennings - Money
EXTD=
EXTT0=
EXTT1=
EXTT2=
EXTT3=
EXTT4=
EXTT5=
EXTT6=
EXTT7=
EXTT8=
EXTT9=
EXTT10=
EXTT11=
EXTT12=
EXTT13=
EXTT14=
EXTT15=
EXTT16=
EXTT17=
EXTT18=
EXTT19=
EXTT20=
EXTT21=
EXTT22=
EXTT23=
EXTT24=
PLAYORDER=
